<?xml version="1.0" encoding="utf-8"?>
<!-- Svg Vector Icons : http://www.onlinewebfonts.com/icon -->
<!DOCTYPE svg PUBLIC "-//W3C//DTD SVG 1.1//EN" "http://www.w3.org/Graphics/SVG/1.1/DTD/svg11.dtd">
<svg version="1.1" xmlns="http://www.w3.org/2000/svg" xmlns:xlink="http://www.w3.org/1999/xlink" x="0px" y="0px" viewBox="0 0 1000 1000" enable-background="new 0 0 1000 1000" xml:space="preserve">
<metadata> Svg Vector Icons : http://www.onlinewebfonts.com/icon </metadata>
<g><path d="M894.2,9.4c25.6,0,47.9,8.5,67.1,25.5c19.2,17,28.7,38.2,28.7,63.8c0,23-8.2,50.5-24.6,82.7c-121.2,229.6-206,366.8-254.6,411.7c-35.4,33.2-75.2,49.8-119.4,49.8c-46,0-85.5-16.9-118.5-50.6s-49.5-73.8-49.5-120.2c0-46.7,16.8-85.4,50.4-116.1L823,39C844.5,19.3,868.3,9.4,894.2,9.4L894.2,9.4z M396.5,575.6c14.2,27.8,33.7,51.5,58.3,71.2c24.6,19.7,52.1,33.6,82.4,41.6l0.6,38.9c1.5,77.7-22.2,141.1-70.9,190c-48.7,48.9-112.3,73.4-190.8,73.4c-44.9,0-84.7-8.5-119.4-25.5c-34.7-17-62.5-40.3-83.5-69.8c-21-29.6-36.8-62.9-47.4-100.2C15.3,757.9,10,717.8,10,674.7c2.5,1.8,10,7.3,22.5,16.4c12.4,9.1,23.7,17.3,34,24.4c10.2,7.1,21,13.8,32.3,20c11.3,6.2,19.7,9.3,25.2,9.3c15,0,25-6.8,30.1-20.3c9.1-24.1,19.6-44.6,31.5-61.6c11.8-17,24.5-30.9,38.1-41.6c13.5-10.8,29.6-19.4,48.2-26c18.6-6.6,37.4-11.2,56.4-13.9C347.1,578.6,369.9,576.7,396.5,575.6L396.5,575.6z"/></g>
</svg>