<?xml version="1.0" encoding="utf-8"?>
<!-- Svg Vector Icons : http://www.onlinewebfonts.com/icon -->
<!DOCTYPE svg PUBLIC "-//W3C//DTD SVG 1.1//EN" "http://www.w3.org/Graphics/SVG/1.1/DTD/svg11.dtd">
<svg version="1.1" xmlns="http://www.w3.org/2000/svg" xmlns:xlink="http://www.w3.org/1999/xlink" x="0px" y="0px" viewBox="0 0 1000 1000" enable-background="new 0 0 1000 1000" xml:space="preserve">
<metadata> Svg Vector Icons : http://www.onlinewebfonts.com/icon </metadata>
<g><g transform="matrix(1 0 0 -1 0 448)"><path d="M990,9.3v-122.5h-67c-8.9-61.3-30-118-63.2-170.4s-75.9-95.1-128.2-128.2S622.5-466.1,561.3-475v-67H438.8v67c-93.2,12.8-173.5,53-241.2,120.6S89.8-206.4,77-113.3H10V9.3h67c12.8,93.2,53,173.5,120.6,241.2s148,107.8,241.2,120.6v67h122.5v-67c93.2-12.8,173.5-53,241.2-120.6S910.2,102.4,923,9.3H990z M561.3-383.1c68.9,12.8,127.9,43.7,177.1,92.8s80.1,108.1,92.8,177.1H683.8V9.3h147.4c-12.8,68.9-43.7,127.9-92.8,177.1s-108.1,80.1-177.1,92.8V131.8H438.8v147.4c-68.9-12.8-127.9-43.7-177.1-92.8S181.6,78.2,168.9,9.3h147.4v-122.5H168.9c12.8-68.9,43.7-127.9,92.8-177.1s108.1-80.1,177.1-92.8v147.4h122.5V-383.1z"/></g></g>
</svg>