<?xml version="1.0" encoding="utf-8"?>
<!-- Svg Vector Icons : http://www.onlinewebfonts.com/icon -->
<!DOCTYPE svg PUBLIC "-//W3C//DTD SVG 1.1//EN" "http://www.w3.org/Graphics/SVG/1.1/DTD/svg11.dtd">
<svg version="1.1" xmlns="http://www.w3.org/2000/svg" xmlns:xlink="http://www.w3.org/1999/xlink" x="0px" y="0px" viewBox="0 0 1000 1000" enable-background="new 0 0 1000 1000" xml:space="preserve">
<metadata> Svg Vector Icons : http://www.onlinewebfonts.com/icon </metadata>
<g><g transform="matrix(1 0 0 -1 0 1920)"><path d="M105.8,930.4c-26.8,0-49.5,9.3-68,27.8C19.3,976.7,10,999.3,10,1025.8c0,27.7,10,51.4,29.9,71.4l14.5,14.5c0.6,0.8,1.3,2.2,2.3,4.1c1,1.9,1.7,3.8,2.3,5.6c0.6,1.8,0.8,3.1,0.8,3.9c-1.7,7.2-2.5,14.9-2.5,23.2c0,17.4,3.5,34.9,10.6,52.5c7.1,17.6,16.7,32.4,28.8,44.6l372.6,372.6l-46.5,46.1c-6.9,6.9-10.4,15.1-10.4,24.5c0,9.1,3.2,16.9,9.5,23.2l58.9,58.9c6.4,6.1,14.1,9.1,23.2,9.1c9.4,0,17.6-3.3,24.5-10l64.3-64.3c3,3.9,4.8,5.9,5.4,6.2l131.9,132.4c43.4,43.4,82.7,65.1,117.8,65.1c26.8,0,52.1-11.9,75.9-35.7l29.5-29.5c24.3-24.3,36.5-49.8,36.5-76.3c0-19.9-6-39.5-18-58.7s-28-38.8-47.9-58.7l-132.4-132.4l-6.2-5l64.3-64.7c6.9-6.6,10.4-14.8,10.4-24.5c0-9.1-3.2-16.7-9.5-22.8l-58.9-58.9c-6.4-6.4-14-9.5-22.8-9.5c-9.7,0-18,3.5-24.9,10.4l-46.1,46.1l-372.6-372.6c-12.2-11.9-27-21.4-44.6-28.4c-17.6-7.1-34.9-10.6-52.1-10.6c-7.7,0-15.4,0.7-22.8,2.1c-1.1,0-2.6-0.3-4.6-0.8c-1.9-0.6-3.8-1.2-5.6-2.1s-3.1-1.5-3.9-2.1l-14.9-14.9C157.2,940.2,133.5,930.4,105.8,930.4z M143.2,1210.1h293.3l220.3,220.3l-146.5,146.9L143.2,1210.1z"/></g></g>
</svg>