<?xml version="1.0" encoding="utf-8"?>
<!-- Svg Vector Icons : http://www.onlinewebfonts.com/icon -->
<!DOCTYPE svg PUBLIC "-//W3C//DTD SVG 1.1//EN" "http://www.w3.org/Graphics/SVG/1.1/DTD/svg11.dtd">
<svg version="1.1" xmlns="http://www.w3.org/2000/svg" xmlns:xlink="http://www.w3.org/1999/xlink" x="0px" y="0px" viewBox="0 0 1000 1000" enable-background="new 0 0 1000 1000" xml:space="preserve">
<metadata> Svg Vector Icons : http://www.onlinewebfonts.com/icon </metadata>
<g><g transform="matrix(1 0 0 -1 0 1536)"><path d="M775.6,1036c0-16.6-6.1-30.9-18.2-43.1L328.7,564.2c-12.1-12.1-26.5-18.2-43.1-18.2c-16.6,0-30.9,6.1-43.1,18.2c-12.1,12.1-18.2,26.5-18.2,43.1v857.5c0,16.6,6.1,30.9,18.2,43.1c12.1,12.1,26.5,18.2,43.1,18.2c16.6,0,30.9-6.1,43.1-18.2l428.8-428.8C769.6,1066.9,775.6,1052.6,775.6,1036z"/></g></g>
</svg>